<svg xmlns="http://www.w3.org/2000/svg" viewBox="0 0 512 512" role="img" aria-label="RP Assistence logo">
  <rect width="512" height="512" rx="64" fill="#EEF1E6"/>
  <rect x="48" y="48" width="416" height="416" rx="36" fill="#1E3A5F"/>
  <path d="M156 150h200a30 30 0 0 1 30 30v42c-24 0-42 19-42 42s18 42 42 42v40a30 30 0 0 1-30 30H156a30 30 0 0 1-30-30v-40c24 0 42-19 42-42s-18-42-42-42v-42a30 30 0 0 1 30-30Z" fill="#EEF1E6"/>
  <path d="M228 168v176" stroke="#1E3A5F" stroke-width="8" stroke-linecap="round" stroke-dasharray="2 16"/>
  <text x="264" y="278" text-anchor="middle" font-family="Georgia, 'Times New Roman', serif" font-size="104" font-weight="700" letter-spacing="-4" fill="#1E3A5F">RP</text>
</svg>
